<mxfile host="Electron" agent="Mozilla/5.0 (Windows NT 10.0; Win64; x64) AppleWebKit/537.36 (KHTML, like Gecko) draw.io/26.2.2 Chrome/134.0.6998.178 Electron/35.1.2 Safari/537.36" version="26.2.2">
  <diagram id="C5RBs43oDa-KdzZeNtuy" name="Page-1">
    <mxGraphModel dx="2197" dy="1306" grid="1" gridSize="10" guides="1" tooltips="1" connect="1" arrows="1" fold="1" page="1" pageScale="1" pageWidth="1200" pageHeight="1920" math="0" shadow="0">
      <root>
        <mxCell id="WIyWlLk6GJQsqaUBKTNV-0" />
        <mxCell id="WIyWlLk6GJQsqaUBKTNV-1" parent="WIyWlLk6GJQsqaUBKTNV-0" />
        <mxCell id="zkfFHV4jXpPFQw0GAbJ--0" value="Pessoas &lt;abstract&gt;" style="swimlane;fontStyle=2;align=center;verticalAlign=top;childLayout=stackLayout;horizontal=1;startSize=26;horizontalStack=0;resizeParent=1;resizeLast=0;collapsible=1;marginBottom=0;rounded=0;shadow=0;strokeWidth=1;" parent="WIyWlLk6GJQsqaUBKTNV-1" vertex="1">
          <mxGeometry x="310" y="40" width="160" height="112" as="geometry">
            <mxRectangle x="230" y="140" width="160" height="26" as="alternateBounds" />
          </mxGeometry>
        </mxCell>
        <mxCell id="zkfFHV4jXpPFQw0GAbJ--1" value="- nome str" style="text;align=left;verticalAlign=top;spacingLeft=4;spacingRight=4;overflow=hidden;rotatable=0;points=[[0,0.5],[1,0.5]];portConstraint=eastwest;" parent="zkfFHV4jXpPFQw0GAbJ--0" vertex="1">
          <mxGeometry y="26" width="160" height="26" as="geometry" />
        </mxCell>
        <mxCell id="zkfFHV4jXpPFQw0GAbJ--2" value="- idade int" style="text;align=left;verticalAlign=top;spacingLeft=4;spacingRight=4;overflow=hidden;rotatable=0;points=[[0,0.5],[1,0.5]];portConstraint=eastwest;rounded=0;shadow=0;html=0;" parent="zkfFHV4jXpPFQw0GAbJ--0" vertex="1">
          <mxGeometry y="52" width="160" height="26" as="geometry" />
        </mxCell>
        <mxCell id="zkfFHV4jXpPFQw0GAbJ--4" value="" style="line;html=1;strokeWidth=1;align=left;verticalAlign=middle;spacingTop=-1;spacingLeft=3;spacingRight=3;rotatable=0;labelPosition=right;points=[];portConstraint=eastwest;" parent="zkfFHV4jXpPFQw0GAbJ--0" vertex="1">
          <mxGeometry y="78" width="160" height="8" as="geometry" />
        </mxCell>
        <mxCell id="zkfFHV4jXpPFQw0GAbJ--5" value="+__str__()" style="text;align=left;verticalAlign=top;spacingLeft=4;spacingRight=4;overflow=hidden;rotatable=0;points=[[0,0.5],[1,0.5]];portConstraint=eastwest;" parent="zkfFHV4jXpPFQw0GAbJ--0" vertex="1">
          <mxGeometry y="86" width="160" height="26" as="geometry" />
        </mxCell>
        <mxCell id="zkfFHV4jXpPFQw0GAbJ--6" value="UsuÃ¡rio" style="swimlane;fontStyle=0;align=center;verticalAlign=top;childLayout=stackLayout;horizontal=1;startSize=26;horizontalStack=0;resizeParent=1;resizeLast=0;collapsible=1;marginBottom=0;rounded=0;shadow=0;strokeWidth=1;" parent="WIyWlLk6GJQsqaUBKTNV-1" vertex="1">
          <mxGeometry x="120" y="370" width="160" height="52" as="geometry">
            <mxRectangle x="130" y="380" width="160" height="26" as="alternateBounds" />
          </mxGeometry>
        </mxCell>
        <mxCell id="zkfFHV4jXpPFQw0GAbJ--11" value="+__str__()" style="text;align=left;verticalAlign=top;spacingLeft=4;spacingRight=4;overflow=hidden;rotatable=0;points=[[0,0.5],[1,0.5]];portConstraint=eastwest;" parent="zkfFHV4jXpPFQw0GAbJ--6" vertex="1">
          <mxGeometry y="26" width="160" height="26" as="geometry" />
        </mxCell>
        <mxCell id="zkfFHV4jXpPFQw0GAbJ--12" value="" style="endArrow=block;endSize=10;endFill=0;shadow=0;strokeWidth=1;rounded=0;curved=0;edgeStyle=elbowEdgeStyle;elbow=vertical;" parent="WIyWlLk6GJQsqaUBKTNV-1" source="zkfFHV4jXpPFQw0GAbJ--6" target="zkfFHV4jXpPFQw0GAbJ--0" edge="1">
          <mxGeometry width="160" relative="1" as="geometry">
            <mxPoint x="310" y="213" as="sourcePoint" />
            <mxPoint x="310" y="213" as="targetPoint" />
            <Array as="points">
              <mxPoint x="300" y="270" />
            </Array>
          </mxGeometry>
        </mxCell>
        <mxCell id="k60n2wc9BFf4fC7vkeU9-9" value="" style="edgeStyle=none;rounded=0;orthogonalLoop=1;jettySize=auto;html=1;" edge="1" parent="WIyWlLk6GJQsqaUBKTNV-1" source="zkfFHV4jXpPFQw0GAbJ--13" target="k60n2wc9BFf4fC7vkeU9-5">
          <mxGeometry relative="1" as="geometry" />
        </mxCell>
        <mxCell id="zkfFHV4jXpPFQw0GAbJ--13" value="Vendedor" style="swimlane;fontStyle=0;align=center;verticalAlign=top;childLayout=stackLayout;horizontal=1;startSize=26;horizontalStack=0;resizeParent=1;resizeLast=0;collapsible=1;marginBottom=0;rounded=0;shadow=0;strokeWidth=1;" parent="WIyWlLk6GJQsqaUBKTNV-1" vertex="1">
          <mxGeometry x="310" y="370" width="160" height="100" as="geometry">
            <mxRectangle x="340" y="380" width="170" height="26" as="alternateBounds" />
          </mxGeometry>
        </mxCell>
        <mxCell id="zkfFHV4jXpPFQw0GAbJ--14" value="- loja: str" style="text;align=left;verticalAlign=top;spacingLeft=4;spacingRight=4;overflow=hidden;rotatable=0;points=[[0,0.5],[1,0.5]];portConstraint=eastwest;" parent="zkfFHV4jXpPFQw0GAbJ--13" vertex="1">
          <mxGeometry y="26" width="160" height="26" as="geometry" />
        </mxCell>
        <mxCell id="zkfFHV4jXpPFQw0GAbJ--15" value="" style="line;html=1;strokeWidth=1;align=left;verticalAlign=middle;spacingTop=-1;spacingLeft=3;spacingRight=3;rotatable=0;labelPosition=right;points=[];portConstraint=eastwest;" parent="zkfFHV4jXpPFQw0GAbJ--13" vertex="1">
          <mxGeometry y="52" width="160" height="8" as="geometry" />
        </mxCell>
        <mxCell id="k60n2wc9BFf4fC7vkeU9-2" value="&lt;span style=&quot;color: rgb(255, 255, 255); font-family: Helvetica; font-size: 12px; font-style: normal; font-variant-ligatures: normal; font-variant-caps: normal; font-weight: 400; letter-spacing: normal; orphans: 2; text-align: left; text-indent: 0px; text-transform: none; widows: 2; word-spacing: 0px; -webkit-text-stroke-width: 0px; white-space: nowrap; background-color: rgb(27, 29, 30); text-decoration-thickness: initial; text-decoration-style: initial; text-decoration-color: initial; display: inline !important; float: none;&quot;&gt;+__str__()&lt;/span&gt;" style="text;whiteSpace=wrap;html=1;" vertex="1" parent="zkfFHV4jXpPFQw0GAbJ--13">
          <mxGeometry y="60" width="160" height="30" as="geometry" />
        </mxCell>
        <mxCell id="zkfFHV4jXpPFQw0GAbJ--16" value="" style="endArrow=block;endSize=10;endFill=0;shadow=0;strokeWidth=1;rounded=0;curved=0;edgeStyle=elbowEdgeStyle;elbow=vertical;" parent="WIyWlLk6GJQsqaUBKTNV-1" source="zkfFHV4jXpPFQw0GAbJ--13" target="zkfFHV4jXpPFQw0GAbJ--0" edge="1">
          <mxGeometry width="160" relative="1" as="geometry">
            <mxPoint x="320" y="383" as="sourcePoint" />
            <mxPoint x="420" y="281" as="targetPoint" />
          </mxGeometry>
        </mxCell>
        <mxCell id="zkfFHV4jXpPFQw0GAbJ--17" value="Entregador" style="swimlane;fontStyle=0;align=center;verticalAlign=top;childLayout=stackLayout;horizontal=1;startSize=26;horizontalStack=0;resizeParent=1;resizeLast=0;collapsible=1;marginBottom=0;rounded=0;shadow=0;strokeWidth=1;" parent="WIyWlLk6GJQsqaUBKTNV-1" vertex="1">
          <mxGeometry x="500" y="370" width="160" height="100" as="geometry">
            <mxRectangle x="550" y="140" width="160" height="26" as="alternateBounds" />
          </mxGeometry>
        </mxCell>
        <mxCell id="zkfFHV4jXpPFQw0GAbJ--22" value="- moto: str" style="text;align=left;verticalAlign=top;spacingLeft=4;spacingRight=4;overflow=hidden;rotatable=0;points=[[0,0.5],[1,0.5]];portConstraint=eastwest;rounded=0;shadow=0;html=0;" parent="zkfFHV4jXpPFQw0GAbJ--17" vertex="1">
          <mxGeometry y="26" width="160" height="26" as="geometry" />
        </mxCell>
        <mxCell id="zkfFHV4jXpPFQw0GAbJ--23" value="" style="line;html=1;strokeWidth=1;align=left;verticalAlign=middle;spacingTop=-1;spacingLeft=3;spacingRight=3;rotatable=0;labelPosition=right;points=[];portConstraint=eastwest;" parent="zkfFHV4jXpPFQw0GAbJ--17" vertex="1">
          <mxGeometry y="52" width="160" height="8" as="geometry" />
        </mxCell>
        <mxCell id="k60n2wc9BFf4fC7vkeU9-3" value="&lt;span style=&quot;color: rgb(255, 255, 255); font-family: Helvetica; font-size: 12px; font-style: normal; font-variant-ligatures: normal; font-variant-caps: normal; font-weight: 400; letter-spacing: normal; orphans: 2; text-align: left; text-indent: 0px; text-transform: none; widows: 2; word-spacing: 0px; -webkit-text-stroke-width: 0px; white-space: nowrap; background-color: rgb(27, 29, 30); text-decoration-thickness: initial; text-decoration-style: initial; text-decoration-color: initial; display: inline !important; float: none;&quot;&gt;+__str__()&lt;/span&gt;" style="text;whiteSpace=wrap;html=1;" vertex="1" parent="zkfFHV4jXpPFQw0GAbJ--17">
          <mxGeometry y="60" width="160" height="40" as="geometry" />
        </mxCell>
        <mxCell id="k60n2wc9BFf4fC7vkeU9-18" value="" style="edgeStyle=none;rounded=0;orthogonalLoop=1;jettySize=auto;html=1;" edge="1" parent="WIyWlLk6GJQsqaUBKTNV-1" source="k60n2wc9BFf4fC7vkeU9-5" target="k60n2wc9BFf4fC7vkeU9-15">
          <mxGeometry relative="1" as="geometry" />
        </mxCell>
        <mxCell id="k60n2wc9BFf4fC7vkeU9-5" value="Create" style="swimlane;fontStyle=0;align=center;verticalAlign=top;childLayout=stackLayout;horizontal=1;startSize=26;horizontalStack=0;resizeParent=1;resizeLast=0;collapsible=1;marginBottom=0;rounded=0;shadow=0;strokeWidth=1;" vertex="1" parent="WIyWlLk6GJQsqaUBKTNV-1">
          <mxGeometry x="310" y="550" width="160" height="82" as="geometry">
            <mxRectangle x="340" y="380" width="170" height="26" as="alternateBounds" />
          </mxGeometry>
        </mxCell>
        <mxCell id="k60n2wc9BFf4fC7vkeU9-6" value="+ userInput()" style="text;align=left;verticalAlign=top;spacingLeft=4;spacingRight=4;overflow=hidden;rotatable=0;points=[[0,0.5],[1,0.5]];portConstraint=eastwest;" vertex="1" parent="k60n2wc9BFf4fC7vkeU9-5">
          <mxGeometry y="26" width="160" height="26" as="geometry" />
        </mxCell>
        <mxCell id="k60n2wc9BFf4fC7vkeU9-8" value="&lt;span style=&quot;text-wrap-mode: nowrap;&quot;&gt;&amp;nbsp;+ passwordInput()&lt;/span&gt;" style="text;whiteSpace=wrap;html=1;" vertex="1" parent="k60n2wc9BFf4fC7vkeU9-5">
          <mxGeometry y="52" width="160" height="30" as="geometry" />
        </mxCell>
        <mxCell id="k60n2wc9BFf4fC7vkeU9-38" value="" style="edgeStyle=none;rounded=0;orthogonalLoop=1;jettySize=auto;html=1;" edge="1" parent="WIyWlLk6GJQsqaUBKTNV-1" source="k60n2wc9BFf4fC7vkeU9-15" target="k60n2wc9BFf4fC7vkeU9-34">
          <mxGeometry relative="1" as="geometry" />
        </mxCell>
        <mxCell id="k60n2wc9BFf4fC7vkeU9-15" value="Login" style="swimlane;fontStyle=0;align=center;verticalAlign=top;childLayout=stackLayout;horizontal=1;startSize=26;horizontalStack=0;resizeParent=1;resizeLast=0;collapsible=1;marginBottom=0;rounded=0;shadow=0;strokeWidth=1;" vertex="1" parent="WIyWlLk6GJQsqaUBKTNV-1">
          <mxGeometry x="310" y="730" width="160" height="120" as="geometry">
            <mxRectangle x="340" y="380" width="170" height="26" as="alternateBounds" />
          </mxGeometry>
        </mxCell>
        <mxCell id="k60n2wc9BFf4fC7vkeU9-16" value="+ login()" style="text;align=left;verticalAlign=top;spacingLeft=4;spacingRight=4;overflow=hidden;rotatable=0;points=[[0,0.5],[1,0.5]];portConstraint=eastwest;" vertex="1" parent="k60n2wc9BFf4fC7vkeU9-15">
          <mxGeometry y="26" width="160" height="26" as="geometry" />
        </mxCell>
        <mxCell id="k60n2wc9BFf4fC7vkeU9-17" value="&lt;span style=&quot;text-wrap-mode: nowrap;&quot;&gt;+ loginverify()&lt;/span&gt;" style="text;whiteSpace=wrap;html=1;" vertex="1" parent="k60n2wc9BFf4fC7vkeU9-15">
          <mxGeometry y="52" width="160" height="30" as="geometry" />
        </mxCell>
        <mxCell id="k60n2wc9BFf4fC7vkeU9-25" value="&lt;span style=&quot;text-wrap-mode: nowrap;&quot;&gt;+ loged()&lt;/span&gt;" style="text;whiteSpace=wrap;html=1;" vertex="1" parent="k60n2wc9BFf4fC7vkeU9-15">
          <mxGeometry y="82" width="160" height="30" as="geometry" />
        </mxCell>
        <mxCell id="k60n2wc9BFf4fC7vkeU9-26" value="Dados" style="swimlane;fontStyle=0;childLayout=stackLayout;horizontal=1;startSize=30;horizontalStack=0;resizeParent=1;resizeParentMax=0;resizeLast=0;collapsible=1;marginBottom=0;whiteSpace=wrap;html=1;" vertex="1" parent="WIyWlLk6GJQsqaUBKTNV-1">
          <mxGeometry x="1010" y="80" width="140" height="650" as="geometry" />
        </mxCell>
        <mxCell id="k60n2wc9BFf4fC7vkeU9-27" value="+ escrever()" style="text;strokeColor=none;fillColor=none;align=left;verticalAlign=middle;spacingLeft=4;spacingRight=4;overflow=hidden;points=[[0,0.5],[1,0.5]];portConstraint=eastwest;rotatable=0;whiteSpace=wrap;html=1;" vertex="1" parent="k60n2wc9BFf4fC7vkeU9-26">
          <mxGeometry y="30" width="140" height="30" as="geometry" />
        </mxCell>
        <mxCell id="k60n2wc9BFf4fC7vkeU9-28" value="+ listar()" style="text;strokeColor=none;fillColor=none;align=left;verticalAlign=middle;spacingLeft=4;spacingRight=4;overflow=hidden;points=[[0,0.5],[1,0.5]];portConstraint=eastwest;rotatable=0;whiteSpace=wrap;html=1;" vertex="1" parent="k60n2wc9BFf4fC7vkeU9-26">
          <mxGeometry y="60" width="140" height="30" as="geometry" />
        </mxCell>
        <mxCell id="k60n2wc9BFf4fC7vkeU9-29" value="+ removeritem()" style="text;strokeColor=none;fillColor=none;align=left;verticalAlign=middle;spacingLeft=4;spacingRight=4;overflow=hidden;points=[[0,0.5],[1,0.5]];portConstraint=eastwest;rotatable=0;whiteSpace=wrap;html=1;" vertex="1" parent="k60n2wc9BFf4fC7vkeU9-26">
          <mxGeometry y="90" width="140" height="30" as="geometry" />
        </mxCell>
        <mxCell id="k60n2wc9BFf4fC7vkeU9-30" value="+ typeAccount()" style="text;strokeColor=none;fillColor=none;align=left;verticalAlign=middle;spacingLeft=4;spacingRight=4;overflow=hidden;points=[[0,0.5],[1,0.5]];portConstraint=eastwest;rotatable=0;whiteSpace=wrap;html=1;" vertex="1" parent="k60n2wc9BFf4fC7vkeU9-26">
          <mxGeometry y="120" width="140" height="30" as="geometry" />
        </mxCell>
        <mxCell id="k60n2wc9BFf4fC7vkeU9-31" value="+ getName()" style="text;strokeColor=none;fillColor=none;align=left;verticalAlign=middle;spacingLeft=4;spacingRight=4;overflow=hidden;points=[[0,0.5],[1,0.5]];portConstraint=eastwest;rotatable=0;whiteSpace=wrap;html=1;" vertex="1" parent="k60n2wc9BFf4fC7vkeU9-26">
          <mxGeometry y="150" width="140" height="30" as="geometry" />
        </mxCell>
        <mxCell id="k60n2wc9BFf4fC7vkeU9-97" value="+ getLojaName&lt;span style=&quot;background-color: transparent; color: light-dark(rgb(0, 0, 0), rgb(255, 255, 255));&quot;&gt;()&lt;/span&gt;" style="text;strokeColor=none;fillColor=none;align=left;verticalAlign=middle;spacingLeft=4;spacingRight=4;overflow=hidden;points=[[0,0.5],[1,0.5]];portConstraint=eastwest;rotatable=0;whiteSpace=wrap;html=1;" vertex="1" parent="k60n2wc9BFf4fC7vkeU9-26">
          <mxGeometry y="180" width="140" height="30" as="geometry" />
        </mxCell>
        <mxCell id="k60n2wc9BFf4fC7vkeU9-98" value="&lt;span style=&quot;color: rgb(255, 255, 255); font-family: Helvetica; font-size: 12px; font-style: normal; font-variant-ligatures: normal; font-variant-caps: normal; font-weight: 400; letter-spacing: normal; orphans: 2; text-align: left; text-indent: 0px; text-transform: none; widows: 2; word-spacing: 0px; -webkit-text-stroke-width: 0px; white-space: normal; background-color: rgb(27, 29, 30); text-decoration-thickness: initial; text-decoration-style: initial; text-decoration-color: initial; display: inline !important; float: none;&quot;&gt;+ existeLoja&lt;/span&gt;&lt;span style=&quot;background-color: transparent; color: light-dark(rgb(0, 0, 0), rgb(255, 255, 255));&quot;&gt;()&lt;/span&gt;" style="text;whiteSpace=wrap;html=1;" vertex="1" parent="k60n2wc9BFf4fC7vkeU9-26">
          <mxGeometry y="210" width="140" height="40" as="geometry" />
        </mxCell>
        <mxCell id="k60n2wc9BFf4fC7vkeU9-99" value="&lt;span style=&quot;color: rgb(255, 255, 255); font-family: Helvetica; font-size: 12px; font-style: normal; font-variant-ligatures: normal; font-variant-caps: normal; font-weight: 400; letter-spacing: normal; orphans: 2; text-align: left; text-indent: 0px; text-transform: none; widows: 2; word-spacing: 0px; -webkit-text-stroke-width: 0px; white-space: normal; background-color: rgb(27, 29, 30); text-decoration-thickness: initial; text-decoration-style: initial; text-decoration-color: initial; display: inline !important; float: none;&quot;&gt;+ escreverV&lt;/span&gt;&lt;span style=&quot;forced-color-adjust: none; box-shadow: none !important; color: light-dark(rgb(0, 0, 0), rgb(255, 255, 255)); font-family: Helvetica; font-size: 12px; font-style: normal; font-variant-ligatures: normal; font-variant-caps: normal; font-weight: 400; letter-spacing: normal; orphans: 2; text-align: left; text-indent: 0px; text-transform: none; widows: 2; word-spacing: 0px; -webkit-text-stroke-width: 0px; white-space: normal; background-color: transparent; text-decoration-thickness: initial; text-decoration-style: initial; text-decoration-color: initial;&quot;&gt;()&lt;/span&gt;" style="text;whiteSpace=wrap;html=1;" vertex="1" parent="k60n2wc9BFf4fC7vkeU9-26">
          <mxGeometry y="250" width="140" height="40" as="geometry" />
        </mxCell>
        <mxCell id="k60n2wc9BFf4fC7vkeU9-100" value="&lt;span style=&quot;color: rgb(255, 255, 255); font-family: Helvetica; font-size: 12px; font-style: normal; font-variant-ligatures: normal; font-variant-caps: normal; font-weight: 400; letter-spacing: normal; orphans: 2; text-align: left; text-indent: 0px; text-transform: none; widows: 2; word-spacing: 0px; -webkit-text-stroke-width: 0px; white-space: normal; background-color: rgb(27, 29, 30); text-decoration-thickness: initial; text-decoration-style: initial; text-decoration-color: initial; display: inline !important; float: none;&quot;&gt;+ removerItem&lt;/span&gt;&lt;span style=&quot;forced-color-adjust: none; box-shadow: none !important; color: light-dark(rgb(0, 0, 0), rgb(255, 255, 255)); font-family: Helvetica; font-size: 12px; font-style: normal; font-variant-ligatures: normal; font-variant-caps: normal; font-weight: 400; letter-spacing: normal; orphans: 2; text-align: left; text-indent: 0px; text-transform: none; widows: 2; word-spacing: 0px; -webkit-text-stroke-width: 0px; white-space: normal; background-color: transparent; text-decoration-thickness: initial; text-decoration-style: initial; text-decoration-color: initial;&quot;&gt;()&lt;/span&gt;" style="text;whiteSpace=wrap;html=1;" vertex="1" parent="k60n2wc9BFf4fC7vkeU9-26">
          <mxGeometry y="290" width="140" height="40" as="geometry" />
        </mxCell>
        <mxCell id="k60n2wc9BFf4fC7vkeU9-101" value="&lt;span style=&quot;color: rgb(255, 255, 255); font-family: Helvetica; font-size: 12px; font-style: normal; font-variant-ligatures: normal; font-variant-caps: normal; font-weight: 400; letter-spacing: normal; orphans: 2; text-align: left; text-indent: 0px; text-transform: none; widows: 2; word-spacing: 0px; -webkit-text-stroke-width: 0px; white-space: normal; background-color: rgb(27, 29, 30); text-decoration-thickness: initial; text-decoration-style: initial; text-decoration-color: initial; display: inline !important; float: none;&quot;&gt;+ listarLojas&lt;/span&gt;&lt;span style=&quot;forced-color-adjust: none; box-shadow: none !important; color: light-dark(rgb(0, 0, 0), rgb(255, 255, 255)); font-family: Helvetica; font-size: 12px; font-style: normal; font-variant-ligatures: normal; font-variant-caps: normal; font-weight: 400; letter-spacing: normal; orphans: 2; text-align: left; text-indent: 0px; text-transform: none; widows: 2; word-spacing: 0px; -webkit-text-stroke-width: 0px; white-space: normal; background-color: transparent; text-decoration-thickness: initial; text-decoration-style: initial; text-decoration-color: initial;&quot;&gt;()&lt;/span&gt;" style="text;whiteSpace=wrap;html=1;" vertex="1" parent="k60n2wc9BFf4fC7vkeU9-26">
          <mxGeometry y="330" width="140" height="40" as="geometry" />
        </mxCell>
        <mxCell id="k60n2wc9BFf4fC7vkeU9-102" value="&lt;span style=&quot;color: rgb(255, 255, 255); font-family: Helvetica; font-size: 12px; font-style: normal; font-variant-ligatures: normal; font-variant-caps: normal; font-weight: 400; letter-spacing: normal; orphans: 2; text-align: left; text-indent: 0px; text-transform: none; widows: 2; word-spacing: 0px; -webkit-text-stroke-width: 0px; white-space: normal; background-color: rgb(27, 29, 30); text-decoration-thickness: initial; text-decoration-style: initial; text-decoration-color: initial; display: inline !important; float: none;&quot;&gt;+ entrarLojas&lt;/span&gt;&lt;span style=&quot;forced-color-adjust: none; box-shadow: none !important; color: light-dark(rgb(0, 0, 0), rgb(255, 255, 255)); font-family: Helvetica; font-size: 12px; font-style: normal; font-variant-ligatures: normal; font-variant-caps: normal; font-weight: 400; letter-spacing: normal; orphans: 2; text-align: left; text-indent: 0px; text-transform: none; widows: 2; word-spacing: 0px; -webkit-text-stroke-width: 0px; white-space: normal; background-color: transparent; text-decoration-thickness: initial; text-decoration-style: initial; text-decoration-color: initial;&quot;&gt;()&lt;/span&gt;" style="text;whiteSpace=wrap;html=1;" vertex="1" parent="k60n2wc9BFf4fC7vkeU9-26">
          <mxGeometry y="370" width="140" height="40" as="geometry" />
        </mxCell>
        <mxCell id="k60n2wc9BFf4fC7vkeU9-103" value="+ viewLoja()" style="text;whiteSpace=wrap;html=1;" vertex="1" parent="k60n2wc9BFf4fC7vkeU9-26">
          <mxGeometry y="410" width="140" height="40" as="geometry" />
        </mxCell>
        <mxCell id="k60n2wc9BFf4fC7vkeU9-105" value="+ buscarEnt()" style="text;whiteSpace=wrap;html=1;" vertex="1" parent="k60n2wc9BFf4fC7vkeU9-26">
          <mxGeometry y="450" width="140" height="40" as="geometry" />
        </mxCell>
        <mxCell id="k60n2wc9BFf4fC7vkeU9-104" value="+ comprarLoja()" style="text;whiteSpace=wrap;html=1;" vertex="1" parent="k60n2wc9BFf4fC7vkeU9-26">
          <mxGeometry y="490" width="140" height="40" as="geometry" />
        </mxCell>
        <mxCell id="k60n2wc9BFf4fC7vkeU9-106" value="+ exibirPedido()" style="text;whiteSpace=wrap;html=1;" vertex="1" parent="k60n2wc9BFf4fC7vkeU9-26">
          <mxGeometry y="530" width="140" height="40" as="geometry" />
        </mxCell>
        <mxCell id="k60n2wc9BFf4fC7vkeU9-107" value="+ pegarPedido()" style="text;whiteSpace=wrap;html=1;" vertex="1" parent="k60n2wc9BFf4fC7vkeU9-26">
          <mxGeometry y="570" width="140" height="40" as="geometry" />
        </mxCell>
        <mxCell id="k60n2wc9BFf4fC7vkeU9-108" value="+ saiuEntrega()" style="text;whiteSpace=wrap;html=1;" vertex="1" parent="k60n2wc9BFf4fC7vkeU9-26">
          <mxGeometry y="610" width="140" height="40" as="geometry" />
        </mxCell>
        <mxCell id="k60n2wc9BFf4fC7vkeU9-32" value="" style="endArrow=classic;html=1;rounded=0;exitX=1;exitY=0.5;exitDx=0;exitDy=0;entryX=0.012;entryY=0.944;entryDx=0;entryDy=0;entryPerimeter=0;" edge="1" parent="WIyWlLk6GJQsqaUBKTNV-1" source="k60n2wc9BFf4fC7vkeU9-6" target="k60n2wc9BFf4fC7vkeU9-28">
          <mxGeometry width="50" height="50" relative="1" as="geometry">
            <mxPoint x="490" y="596" as="sourcePoint" />
            <mxPoint x="760" y="170" as="targetPoint" />
            <Array as="points">
              <mxPoint x="760" y="589" />
              <mxPoint x="760" y="168" />
            </Array>
          </mxGeometry>
        </mxCell>
        <mxCell id="k60n2wc9BFf4fC7vkeU9-34" value="System &lt;abstract&gt;" style="swimlane;fontStyle=0;align=center;verticalAlign=top;childLayout=stackLayout;horizontal=1;startSize=26;horizontalStack=0;resizeParent=1;resizeLast=0;collapsible=1;marginBottom=0;rounded=0;shadow=0;strokeWidth=1;" vertex="1" parent="WIyWlLk6GJQsqaUBKTNV-1">
          <mxGeometry x="310" y="920" width="160" height="172" as="geometry">
            <mxRectangle x="340" y="380" width="170" height="26" as="alternateBounds" />
          </mxGeometry>
        </mxCell>
        <mxCell id="k60n2wc9BFf4fC7vkeU9-35" value="- user: str" style="text;align=left;verticalAlign=top;spacingLeft=4;spacingRight=4;overflow=hidden;rotatable=0;points=[[0,0.5],[1,0.5]];portConstraint=eastwest;" vertex="1" parent="k60n2wc9BFf4fC7vkeU9-34">
          <mxGeometry y="26" width="160" height="26" as="geometry" />
        </mxCell>
        <mxCell id="k60n2wc9BFf4fC7vkeU9-36" value="&lt;span style=&quot;text-wrap-mode: nowrap;&quot;&gt;- name: str&lt;/span&gt;" style="text;whiteSpace=wrap;html=1;" vertex="1" parent="k60n2wc9BFf4fC7vkeU9-34">
          <mxGeometry y="52" width="160" height="30" as="geometry" />
        </mxCell>
        <mxCell id="k60n2wc9BFf4fC7vkeU9-39" value="&lt;span style=&quot;text-wrap-mode: nowrap;&quot;&gt;- continuar: bool&lt;/span&gt;" style="text;whiteSpace=wrap;html=1;" vertex="1" parent="k60n2wc9BFf4fC7vkeU9-34">
          <mxGeometry y="82" width="160" height="30" as="geometry" />
        </mxCell>
        <mxCell id="k60n2wc9BFf4fC7vkeU9-40" value="&lt;span style=&quot;text-wrap-mode: nowrap;&quot;&gt;+ menu()&lt;/span&gt;" style="text;whiteSpace=wrap;html=1;" vertex="1" parent="k60n2wc9BFf4fC7vkeU9-34">
          <mxGeometry y="112" width="160" height="30" as="geometry" />
        </mxCell>
        <mxCell id="k60n2wc9BFf4fC7vkeU9-41" value="&lt;span style=&quot;text-wrap-mode: nowrap;&quot;&gt;+ logout()&lt;/span&gt;" style="text;whiteSpace=wrap;html=1;" vertex="1" parent="k60n2wc9BFf4fC7vkeU9-34">
          <mxGeometry y="142" width="160" height="30" as="geometry" />
        </mxCell>
        <mxCell id="k60n2wc9BFf4fC7vkeU9-43" value="" style="endArrow=none;html=1;rounded=0;exitX=0;exitY=0;exitDx=0;exitDy=0;entryX=1;entryY=0;entryDx=0;entryDy=0;" edge="1" parent="k60n2wc9BFf4fC7vkeU9-34" source="k60n2wc9BFf4fC7vkeU9-40" target="k60n2wc9BFf4fC7vkeU9-40">
          <mxGeometry width="50" height="50" relative="1" as="geometry">
            <mxPoint x="90" y="-30" as="sourcePoint" />
            <mxPoint x="140" y="-80" as="targetPoint" />
          </mxGeometry>
        </mxCell>
        <mxCell id="k60n2wc9BFf4fC7vkeU9-44" value="" style="endArrow=none;html=1;rounded=0;exitX=0.625;exitY=0;exitDx=0;exitDy=0;exitPerimeter=0;" edge="1" parent="WIyWlLk6GJQsqaUBKTNV-1" source="zkfFHV4jXpPFQw0GAbJ--17">
          <mxGeometry width="50" height="50" relative="1" as="geometry">
            <mxPoint x="600" y="270" as="sourcePoint" />
            <mxPoint x="390" y="270" as="targetPoint" />
            <Array as="points">
              <mxPoint x="600" y="270" />
            </Array>
          </mxGeometry>
        </mxCell>
        <mxCell id="k60n2wc9BFf4fC7vkeU9-45" value="" style="endArrow=none;html=1;rounded=0;entryX=0.458;entryY=1.032;entryDx=0;entryDy=0;entryPerimeter=0;" edge="1" parent="WIyWlLk6GJQsqaUBKTNV-1" target="zkfFHV4jXpPFQw0GAbJ--11">
          <mxGeometry width="50" height="50" relative="1" as="geometry">
            <mxPoint x="390" y="510" as="sourcePoint" />
            <mxPoint x="450" y="350" as="targetPoint" />
            <Array as="points">
              <mxPoint x="193" y="510" />
            </Array>
          </mxGeometry>
        </mxCell>
        <mxCell id="k60n2wc9BFf4fC7vkeU9-46" value="" style="endArrow=none;html=1;rounded=0;exitX=0.5;exitY=1;exitDx=0;exitDy=0;" edge="1" parent="WIyWlLk6GJQsqaUBKTNV-1" source="k60n2wc9BFf4fC7vkeU9-3">
          <mxGeometry width="50" height="50" relative="1" as="geometry">
            <mxPoint x="400" y="400" as="sourcePoint" />
            <mxPoint x="390" y="510" as="targetPoint" />
            <Array as="points">
              <mxPoint x="580" y="510" />
            </Array>
          </mxGeometry>
        </mxCell>
        <mxCell id="k60n2wc9BFf4fC7vkeU9-48" value="SystemU" style="swimlane;fontStyle=0;align=center;verticalAlign=top;childLayout=stackLayout;horizontal=1;startSize=26;horizontalStack=0;resizeParent=1;resizeLast=0;collapsible=1;marginBottom=0;rounded=0;shadow=0;strokeWidth=1;" vertex="1" parent="WIyWlLk6GJQsqaUBKTNV-1">
          <mxGeometry x="580" y="875" width="160" height="82" as="geometry">
            <mxRectangle x="340" y="380" width="170" height="26" as="alternateBounds" />
          </mxGeometry>
        </mxCell>
        <mxCell id="k60n2wc9BFf4fC7vkeU9-49" value="+ menu()" style="text;align=left;verticalAlign=top;spacingLeft=4;spacingRight=4;overflow=hidden;rotatable=0;points=[[0,0.5],[1,0.5]];portConstraint=eastwest;" vertex="1" parent="k60n2wc9BFf4fC7vkeU9-48">
          <mxGeometry y="26" width="160" height="26" as="geometry" />
        </mxCell>
        <mxCell id="k60n2wc9BFf4fC7vkeU9-50" value="&lt;span style=&quot;text-wrap-mode: nowrap;&quot;&gt;+ lojas()&lt;/span&gt;" style="text;whiteSpace=wrap;html=1;" vertex="1" parent="k60n2wc9BFf4fC7vkeU9-48">
          <mxGeometry y="52" width="160" height="30" as="geometry" />
        </mxCell>
        <mxCell id="k60n2wc9BFf4fC7vkeU9-57" value="SystemV" style="swimlane;fontStyle=0;align=center;verticalAlign=top;childLayout=stackLayout;horizontal=1;startSize=26;horizontalStack=0;resizeParent=1;resizeLast=0;collapsible=1;marginBottom=0;rounded=0;shadow=0;strokeWidth=1;" vertex="1" parent="WIyWlLk6GJQsqaUBKTNV-1">
          <mxGeometry x="580" y="975" width="160" height="82" as="geometry">
            <mxRectangle x="340" y="380" width="170" height="26" as="alternateBounds" />
          </mxGeometry>
        </mxCell>
        <mxCell id="k60n2wc9BFf4fC7vkeU9-58" value="+ menu()" style="text;align=left;verticalAlign=top;spacingLeft=4;spacingRight=4;overflow=hidden;rotatable=0;points=[[0,0.5],[1,0.5]];portConstraint=eastwest;" vertex="1" parent="k60n2wc9BFf4fC7vkeU9-57">
          <mxGeometry y="26" width="160" height="26" as="geometry" />
        </mxCell>
        <mxCell id="k60n2wc9BFf4fC7vkeU9-59" value="&lt;span style=&quot;text-wrap-mode: nowrap;&quot;&gt;+ criarLoja()&lt;/span&gt;" style="text;whiteSpace=wrap;html=1;" vertex="1" parent="k60n2wc9BFf4fC7vkeU9-57">
          <mxGeometry y="52" width="160" height="30" as="geometry" />
        </mxCell>
        <mxCell id="k60n2wc9BFf4fC7vkeU9-60" value="SystemE" style="swimlane;fontStyle=0;align=center;verticalAlign=top;childLayout=stackLayout;horizontal=1;startSize=26;horizontalStack=0;resizeParent=1;resizeLast=0;collapsible=1;marginBottom=0;rounded=0;shadow=0;strokeWidth=1;" vertex="1" parent="WIyWlLk6GJQsqaUBKTNV-1">
          <mxGeometry x="580" y="1075" width="160" height="82" as="geometry">
            <mxRectangle x="340" y="380" width="170" height="26" as="alternateBounds" />
          </mxGeometry>
        </mxCell>
        <mxCell id="k60n2wc9BFf4fC7vkeU9-61" value="+ menu()" style="text;align=left;verticalAlign=top;spacingLeft=4;spacingRight=4;overflow=hidden;rotatable=0;points=[[0,0.5],[1,0.5]];portConstraint=eastwest;" vertex="1" parent="k60n2wc9BFf4fC7vkeU9-60">
          <mxGeometry y="26" width="160" height="26" as="geometry" />
        </mxCell>
        <mxCell id="k60n2wc9BFf4fC7vkeU9-62" value="&lt;span style=&quot;text-wrap-mode: nowrap;&quot;&gt;+ buscarEntregas()&lt;/span&gt;" style="text;whiteSpace=wrap;html=1;" vertex="1" parent="k60n2wc9BFf4fC7vkeU9-60">
          <mxGeometry y="52" width="160" height="30" as="geometry" />
        </mxCell>
        <mxCell id="k60n2wc9BFf4fC7vkeU9-67" value="" style="endArrow=classic;html=1;rounded=0;" edge="1" parent="WIyWlLk6GJQsqaUBKTNV-1">
          <mxGeometry width="50" height="50" relative="1" as="geometry">
            <mxPoint x="510" y="1010" as="sourcePoint" />
            <mxPoint x="470" y="1010" as="targetPoint" />
          </mxGeometry>
        </mxCell>
        <mxCell id="k60n2wc9BFf4fC7vkeU9-73" value="" style="endArrow=none;html=1;rounded=0;" edge="1" parent="WIyWlLk6GJQsqaUBKTNV-1">
          <mxGeometry width="50" height="50" relative="1" as="geometry">
            <mxPoint x="510" y="1120" as="sourcePoint" />
            <mxPoint x="510" y="920" as="targetPoint" />
            <Array as="points">
              <mxPoint x="510" y="1010" />
            </Array>
          </mxGeometry>
        </mxCell>
        <mxCell id="k60n2wc9BFf4fC7vkeU9-74" value="" style="endArrow=none;html=1;rounded=0;exitX=0;exitY=0.731;exitDx=0;exitDy=0;exitPerimeter=0;" edge="1" parent="WIyWlLk6GJQsqaUBKTNV-1" source="k60n2wc9BFf4fC7vkeU9-49">
          <mxGeometry width="50" height="50" relative="1" as="geometry">
            <mxPoint x="370" y="1080" as="sourcePoint" />
            <mxPoint x="510" y="920" as="targetPoint" />
          </mxGeometry>
        </mxCell>
        <mxCell id="k60n2wc9BFf4fC7vkeU9-75" value="" style="endArrow=none;html=1;rounded=0;" edge="1" parent="WIyWlLk6GJQsqaUBKTNV-1">
          <mxGeometry width="50" height="50" relative="1" as="geometry">
            <mxPoint x="578" y="1010" as="sourcePoint" />
            <mxPoint x="510" y="1010" as="targetPoint" />
          </mxGeometry>
        </mxCell>
        <mxCell id="k60n2wc9BFf4fC7vkeU9-76" value="" style="endArrow=none;html=1;rounded=0;exitX=0;exitY=0.731;exitDx=0;exitDy=0;exitPerimeter=0;" edge="1" parent="WIyWlLk6GJQsqaUBKTNV-1">
          <mxGeometry width="50" height="50" relative="1" as="geometry">
            <mxPoint x="580" y="1120" as="sourcePoint" />
            <mxPoint x="510" y="1120" as="targetPoint" />
          </mxGeometry>
        </mxCell>
        <mxCell id="k60n2wc9BFf4fC7vkeU9-77" value="SystemFunctions" style="swimlane;fontStyle=0;align=center;verticalAlign=top;childLayout=stackLayout;horizontal=1;startSize=26;horizontalStack=0;resizeParent=1;resizeLast=0;collapsible=1;marginBottom=0;rounded=0;shadow=0;strokeWidth=1;" vertex="1" parent="WIyWlLk6GJQsqaUBKTNV-1">
          <mxGeometry x="860" y="880" width="160" height="85" as="geometry">
            <mxRectangle x="340" y="380" width="170" height="26" as="alternateBounds" />
          </mxGeometry>
        </mxCell>
        <mxCell id="k60n2wc9BFf4fC7vkeU9-78" value="+ verificacao()" style="text;align=left;verticalAlign=top;spacingLeft=4;spacingRight=4;overflow=hidden;rotatable=0;points=[[0,0.5],[1,0.5]];portConstraint=eastwest;" vertex="1" parent="k60n2wc9BFf4fC7vkeU9-77">
          <mxGeometry y="26" width="160" height="26" as="geometry" />
        </mxCell>
        <mxCell id="k60n2wc9BFf4fC7vkeU9-79" value="&lt;span style=&quot;text-wrap-mode: nowrap;&quot;&gt;+ type_accout()&lt;/span&gt;" style="text;whiteSpace=wrap;html=1;" vertex="1" parent="k60n2wc9BFf4fC7vkeU9-77">
          <mxGeometry y="52" width="160" height="30" as="geometry" />
        </mxCell>
        <mxCell id="k60n2wc9BFf4fC7vkeU9-83" value="InputName" style="swimlane;fontStyle=0;align=center;verticalAlign=top;childLayout=stackLayout;horizontal=1;startSize=26;horizontalStack=0;resizeParent=1;resizeLast=0;collapsible=1;marginBottom=0;rounded=0;shadow=0;strokeWidth=1;" vertex="1" parent="WIyWlLk6GJQsqaUBKTNV-1">
          <mxGeometry x="860" y="1072" width="160" height="85" as="geometry">
            <mxRectangle x="340" y="380" width="170" height="26" as="alternateBounds" />
          </mxGeometry>
        </mxCell>
        <mxCell id="k60n2wc9BFf4fC7vkeU9-84" value="+ createName()" style="text;align=left;verticalAlign=top;spacingLeft=4;spacingRight=4;overflow=hidden;rotatable=0;points=[[0,0.5],[1,0.5]];portConstraint=eastwest;" vertex="1" parent="k60n2wc9BFf4fC7vkeU9-83">
          <mxGeometry y="26" width="160" height="26" as="geometry" />
        </mxCell>
        <mxCell id="k60n2wc9BFf4fC7vkeU9-85" value="&lt;span style=&quot;text-wrap-mode: nowrap;&quot;&gt;+ choiceType()&lt;/span&gt;" style="text;whiteSpace=wrap;html=1;" vertex="1" parent="k60n2wc9BFf4fC7vkeU9-83">
          <mxGeometry y="52" width="160" height="30" as="geometry" />
        </mxCell>
        <mxCell id="k60n2wc9BFf4fC7vkeU9-87" value="" style="endArrow=classic;html=1;rounded=0;entryX=0;entryY=0.5;entryDx=0;entryDy=0;" edge="1" parent="WIyWlLk6GJQsqaUBKTNV-1" target="k60n2wc9BFf4fC7vkeU9-78">
          <mxGeometry width="50" height="50" relative="1" as="geometry">
            <mxPoint x="800" y="919" as="sourcePoint" />
            <mxPoint x="300" y="902" as="targetPoint" />
          </mxGeometry>
        </mxCell>
        <mxCell id="k60n2wc9BFf4fC7vkeU9-88" value="" style="endArrow=none;html=1;rounded=0;" edge="1" parent="WIyWlLk6GJQsqaUBKTNV-1">
          <mxGeometry width="50" height="50" relative="1" as="geometry">
            <mxPoint x="800" y="1120" as="sourcePoint" />
            <mxPoint x="800" y="920" as="targetPoint" />
          </mxGeometry>
        </mxCell>
        <mxCell id="k60n2wc9BFf4fC7vkeU9-89" value="" style="endArrow=none;html=1;rounded=0;entryX=1;entryY=0.705;entryDx=0;entryDy=0;entryPerimeter=0;" edge="1" parent="WIyWlLk6GJQsqaUBKTNV-1" target="k60n2wc9BFf4fC7vkeU9-61">
          <mxGeometry width="50" height="50" relative="1" as="geometry">
            <mxPoint x="800" y="1120" as="sourcePoint" />
            <mxPoint x="300" y="940" as="targetPoint" />
          </mxGeometry>
        </mxCell>
        <mxCell id="k60n2wc9BFf4fC7vkeU9-90" value="" style="endArrow=none;html=1;rounded=0;entryX=1.003;entryY=0.632;entryDx=0;entryDy=0;entryPerimeter=0;" edge="1" parent="WIyWlLk6GJQsqaUBKTNV-1" target="k60n2wc9BFf4fC7vkeU9-58">
          <mxGeometry width="50" height="50" relative="1" as="geometry">
            <mxPoint x="798" y="1017" as="sourcePoint" />
            <mxPoint x="740" y="1015" as="targetPoint" />
          </mxGeometry>
        </mxCell>
        <mxCell id="k60n2wc9BFf4fC7vkeU9-91" value="" style="endArrow=none;html=1;rounded=0;entryX=1.003;entryY=0.632;entryDx=0;entryDy=0;entryPerimeter=0;" edge="1" parent="WIyWlLk6GJQsqaUBKTNV-1">
          <mxGeometry width="50" height="50" relative="1" as="geometry">
            <mxPoint x="798" y="920" as="sourcePoint" />
            <mxPoint x="740" y="920" as="targetPoint" />
          </mxGeometry>
        </mxCell>
        <mxCell id="k60n2wc9BFf4fC7vkeU9-92" value="" style="endArrow=classic;html=1;rounded=0;exitX=0.5;exitY=1;exitDx=0;exitDy=0;" edge="1" parent="WIyWlLk6GJQsqaUBKTNV-1" source="k60n2wc9BFf4fC7vkeU9-77">
          <mxGeometry width="50" height="50" relative="1" as="geometry">
            <mxPoint x="400" y="830" as="sourcePoint" />
            <mxPoint x="940" y="1070" as="targetPoint" />
          </mxGeometry>
        </mxCell>
      </root>
    </mxGraphModel>
  </diagram>
</mxfile>
